<svg id="SvgjsSvg1032" xmlns="http://www.w3.org/2000/svg" version="1.1" xmlns:xlink="http://www.w3.org/1999/xlink" width="195" height="41"><defs id="SvgjsDefs1033"></defs><path id="SvgjsPath1034" d="M136.178 61.8836C136.533 60.6974 137.17 60.1061 138.09 60.1061C140.53300000000002 60.1061 142.196 60.2131 143.08100000000002 60.4287C143.61100000000002 60.5726 143.876 60.931 143.876 61.5065C143.876 61.8641 143.73600000000002 62.4397 143.453 63.229L132.727 94.8476C132.339 96.0312 131.815 96.9299 131.161 97.5408C130.505 98.15010000000001 129.401 98.45700000000001 127.843 98.45700000000001L125.82600000000001 98.45700000000001C124.268 98.45700000000001 123.161 98.13230000000001 122.50600000000001 97.48570000000001C121.85100000000001 96.8408 121.29500000000002 95.86940000000001 120.83500000000001 94.578L110.375 63.3376C110.126 62.655 110.003 62.0623 110.003 61.5601C110.003 61.021699999999996 110.233 60.6443 110.693 60.4287C111.188 60.2131 112.976 60.1061 116.056 60.1061C116.586 60.1061 116.976 60.2305 117.224 60.4817C117.47200000000001 60.7352 117.702 61.202099999999994 117.914 61.883599999999994C123.188 78.36439999999999 126.178 87.9348 126.886 90.5915C127.41799999999999 88.7965 130.514 79.22739999999999 136.178 61.8836ZM152.027 91.7773C153.089 92.6022 154.73499999999999 93.0153 156.96499999999997 93.0153C159.301 93.0153 161.283 92.81819999999999 162.91099999999997 92.4226C163.68899999999996 92.24510000000001 164.22099999999998 92.1538 164.50399999999996 92.1538C165.10599999999997 92.1538 165.51399999999995 92.4417 165.72499999999997 93.01530000000001C166.11399999999998 94.12880000000001 166.30899999999997 95.20710000000001 166.30899999999997 96.24770000000001C166.30899999999997 96.89470000000001 166.02699999999996 97.343 165.45899999999997 97.5939C163.301 98.5279 160.18599999999998 98.9944 156.11499999999998 98.9944C151.37199999999999 98.9944 148.01799999999997 97.8813 146.05399999999997 95.6558C144.08899999999997 93.42869999999999 143.10699999999997 89.838 143.10699999999997 84.8832C143.10699999999997 79.8204 144.15099999999998 76.1566 146.23899999999998 73.8947C148.32799999999997 71.6328 151.54899999999998 70.5005 155.902 70.5005C157.92 70.5005 159.619 70.74340000000001 161.00099999999998 71.2275C162.38099999999997 71.71260000000001 163.45 72.31490000000001 164.212 73.03290000000001C164.97299999999998 73.75080000000001 165.558 74.78410000000001 165.96499999999997 76.13110000000002C166.37099999999998 77.47570000000002 166.62699999999998 78.76000000000002 166.73399999999998 79.98010000000002C166.83999999999997 81.20280000000002 166.89399999999998 82.81860000000002 166.89399999999998 84.82850000000002C166.89399999999998 85.76200000000001 166.69899999999998 86.35470000000002 166.30899999999997 86.60600000000002C166.02699999999996 86.82240000000002 165.61899999999997 86.93020000000003 165.08899999999997 86.93020000000003L150.38099999999997 86.93020000000003C150.41599999999997 89.33530000000003 150.96399999999997 90.95150000000002 152.02699999999996 91.77730000000003ZM232.194 96.2477C231.69899999999998 96.82289999999999 231.07899999999998 97.23429999999999 230.33599999999998 97.4857C229.23799999999997 97.8813 227.63699999999997 98.2323 225.53099999999998 98.536C223.426 98.8412 221.46899999999997 98.9944 219.664 98.9944C215.80599999999998 98.9944 213.159 98.2145 211.726 96.6514C210.293 95.0899 209.575 92.9444 209.575 90.21499999999999C209.575 87.12599999999999 210.56699999999998 84.91879999999999 212.548 83.58959999999999C214.213 82.44069999999999 217.044 81.8667 221.044 81.8667C222.955 81.8667 224.53 81.9384 225.77 82.0803L225.77 80.7358C225.77 79.5865 225.68 78.75999999999999 225.50500000000002 78.2573C225.08 77.2155 223.57500000000002 76.6958 220.99200000000002 76.6958C219.32700000000003 76.6958 217.55800000000002 76.8576 215.681 77.1798C214.30100000000002 77.3951 213.54000000000002 77.5041 213.39800000000002 77.5041C212.79700000000003 77.5041 212.407 77.16199999999999 212.23000000000002 76.4793C211.877 75.0444 211.70000000000002 74.0021 211.70000000000002 73.3548C211.70000000000002 72.5303 212.08800000000002 71.9923 212.86800000000002 71.7394C215.45100000000002 70.9144 218.49600000000004 70.5005 221.99900000000002 70.5005C226.46000000000004 70.5005 229.43300000000002 71.2371 230.92000000000002 72.7102C232.19400000000002 73.9661 232.83100000000002 76.3545 232.83100000000002 79.8739L232.83100000000002 93.66220000000001C232.83100000000002 94.84760000000001 232.61900000000003 95.70980000000002 232.19400000000002 96.24770000000001ZM274.478 96.2477C273.982 96.82289999999999 273.363 97.23429999999999 272.62 97.4857C271.522 97.8813 269.921 98.2323 267.815 98.536C265.709 98.8412 263.753 98.9944 261.948 98.9944C258.09 98.9944 255.44299999999998 98.2145 254.01 96.6514C252.577 95.0899 251.85899999999998 92.9444 251.85899999999998 90.21499999999999C251.85899999999998 87.12599999999999 252.85099999999997 84.91879999999999 254.832 83.58959999999999C256.497 82.44069999999999 259.328 81.8667 263.328 81.8667C265.239 81.8667 266.81399999999996 81.9384 268.054 82.0803L268.054 80.7358C268.054 79.5865 267.964 78.75999999999999 267.789 78.2573C267.364 77.2155 265.859 76.6958 263.275 76.6958C261.611 76.6958 259.842 76.8576 257.965 77.1798C256.585 77.3951 255.82399999999998 77.5041 255.682 77.5041C255.081 77.5041 254.69099999999997 77.16199999999999 254.51399999999998 76.4793C254.16099999999997 75.0444 253.98399999999998 74.0021 253.98399999999998 73.3548C253.98399999999998 72.5303 254.37199999999999 71.9923 255.152 71.7394C257.735 70.9144 260.78 70.5005 264.283 70.5005C268.744 70.5005 271.71700000000004 71.2371 273.20500000000004 72.7102C274.47800000000007 73.9661 275.11500000000007 76.3545 275.11500000000007 79.8739L275.11500000000007 93.66220000000001C275.11500000000007 94.84760000000001 274.9030000000001 95.70980000000002 274.47800000000007 96.24770000000001ZM201.59 91.4534C202.157 92.1713 203.715 92.62 206.263 92.8004C207.11100000000002 92.871 207.536 93.3574 207.536 94.2541C207.536 95.22489999999999 207.501 96.2477 207.431 97.3256C207.324 98.25869999999999 206.776 98.72529999999999 205.78500000000003 98.72529999999999C202.84700000000004 98.72529999999999 200.59100000000004 98.50959999999999 199.01500000000001 98.07869999999998C197.44000000000003 97.64739999999999 196.209 96.87679999999999 195.324 95.76239999999999C194.58100000000002 94.86499999999998 194.095 93.76969999999999 193.865 92.47769999999998C193.63500000000002 91.18409999999999 193.519 89.37099999999998 193.519 87.03679999999999L193.519 77.17979999999999L190.758 77.17979999999999C189.83800000000002 77.17979999999999 189.37800000000001 76.71279999999999 189.37800000000001 75.7789L189.37800000000001 72.7641C189.37800000000001 71.7584 189.87300000000002 71.2545 190.865 71.2545L193.679 71.2545C193.714 69.88999999999999 193.786 68.0225 193.891 65.6531C193.96099999999998 64.53989999999999 194.441 63.9845 195.32399999999998 63.9845L199.35999999999999 63.9845C200.20899999999997 63.9845 200.634 64.5578 200.634 65.7067L200.634 71.2545L205.253 71.2545C206.351 71.2545 206.89999999999998 71.73939999999999 206.89999999999998 72.71019999999999L206.89999999999998 75.72649999999999C206.89999999999998 76.69579999999999 206.38599999999997 77.17979999999999 205.35999999999999 77.17979999999999L200.634 77.17979999999999L200.634 87.25249999999998C200.634 89.29959999999998 200.952 90.69979999999998 201.58999999999997 91.45339999999999ZM245.553 91.4534C245.941 92.24510000000001 246.95 92.7818 248.578 93.0691C249.356 93.177 249.746 93.6447 249.746 94.4689C249.746 95.6558 249.67600000000002 96.60690000000001 249.53400000000002 97.32560000000001C249.35600000000002 98.15010000000001 248.75600000000003 98.56360000000001 247.728 98.56360000000001C245.288 98.56360000000001 243.419 98.30260000000001 242.12800000000001 97.78280000000001C240.836 97.26110000000001 239.835 96.44500000000001 239.127 95.33180000000002C238.34900000000002 94.07610000000001 237.959 91.99330000000002 237.959 89.08400000000002L237.959 59.512900000000016C237.959 58.50850000000002 238.419 58.005400000000016 239.339 58.005400000000016L243.8 58.005400000000016C244.29500000000002 58.005400000000016 244.632 58.12130000000002 244.80800000000002 58.35480000000002C244.985 58.58790000000002 245.07500000000002 58.97490000000002 245.07500000000002 59.512900000000016L245.07500000000002 88.16830000000002C245.07500000000002 89.67590000000001 245.233 90.77110000000002 245.55300000000003 91.45340000000002ZM176.756 98.3475L172.35 98.3475C171.465 98.3475 171.023 97.84519999999999 171.023 96.8408L171.023 76.4793C171.023 75.58139999999999 171.139 74.8903 171.369 74.40589999999999C171.599 73.92179999999999 172.015 73.46349999999998 172.616 73.03289999999998C173.536 72.42109999999998 175.05 71.85649999999998 177.155 71.33689999999999C179.263 70.81379999999999 181.252 70.55479999999999 183.13 70.55479999999999C184.863 70.55479999999999 186.048 70.66309999999999 186.686 70.87909999999998C187.323 71.13039999999998 187.643 71.59619999999998 187.643 72.27929999999998C187.643 73.85899999999998 187.536 75.07959999999997 187.323 75.94179999999997C187.18300000000002 76.55149999999998 186.74 76.85759999999998 185.995 76.85759999999998C185.748 76.85759999999998 185.235 76.83969999999998 184.455 76.80209999999998C183.67700000000002 76.76629999999999 183.14700000000002 76.74899999999998 182.863 76.74899999999998C181.27 76.74899999999998 180.014 76.98249999999999 179.094 77.44869999999997C178.704 77.66469999999997 178.456 77.89779999999998 178.351 78.14909999999998C178.209 78.40039999999998 178.139 78.86689999999997 178.139 79.54999999999998L178.139 96.84079999999999C178.139 97.84519999999999 177.678 98.34749999999998 176.756 98.34749999999998ZM221.947 86.7682C219.611 86.7682 218.089 87.0368 217.381 87.57509999999999C216.708 88.00609999999999 216.371 88.83259999999999 216.371 90.05319999999999C216.371 91.2028 216.673 92.07279999999999 217.274 92.6646C217.876 93.2585 218.956 93.55399999999999 220.514 93.55399999999999C222.424 93.55399999999999 223.857 93.33789999999999 224.81400000000002 92.90909999999998C225.24 92.72899999999998 225.50500000000002 92.44169999999998 225.61 92.04629999999997C225.717 91.72209999999997 225.77 91.11329999999997 225.77 90.21499999999997L225.77 86.98409999999997C224.35500000000002 86.83859999999997 223.08 86.76819999999996 221.947 86.76819999999996ZM264.231 86.7682C261.895 86.7682 260.373 87.0368 259.665 87.57509999999999C258.992 88.00609999999999 258.65500000000003 88.83259999999999 258.65500000000003 90.05319999999999C258.65500000000003 91.2028 258.95700000000005 92.07279999999999 259.55800000000005 92.6646C260.16 93.2585 261.24000000000007 93.55399999999999 262.79800000000006 93.55399999999999C264.7080000000001 93.55399999999999 266.14200000000005 93.33789999999999 267.09800000000007 92.90909999999998C267.5230000000001 92.72899999999998 267.78900000000004 92.44169999999998 267.89400000000006 92.04629999999997C268.0010000000001 91.72209999999997 268.0540000000001 91.11329999999997 268.0540000000001 90.21499999999997L268.0540000000001 86.98409999999997C266.6380000000001 86.83859999999997 265.3640000000001 86.76819999999996 264.2310000000001 86.76819999999996ZM160.15 81.8116C160.186 81.6341 160.203 81.2915 160.203 80.7896C160.203 79.1005 159.885 77.8617 159.248 77.07329999999999C158.60999999999999 76.28269999999999 157.408 75.88719999999999 155.637 75.88719999999999C153.832 75.88719999999999 152.531 76.3732 151.735 77.3424C150.93800000000002 78.3112 150.52200000000002 79.8022 150.48700000000002 81.8116ZM280.308 59.6756C280.308 58.5611 280.768 58.0054 281.688 58.0054L286.042 58.0054C286.57399999999996 58.0054 286.936 58.1306 287.131 58.3816C287.32599999999996 58.6333 287.424 59.0637 287.424 59.675599999999996L287.424 72.6013C289.405 71.2371 292.185 70.5548 295.758 70.5548C298.981 70.5548 301.325 71.623 302.794 73.7594C304.263 75.8977 304.99699999999996 79.4065 304.99699999999996 84.2901C304.99699999999996 87.3064 304.72399999999993 89.7845 304.17599999999993 91.7221C303.6259999999999 93.6622 302.7579999999999 95.1609 301.5729999999999 96.22059999999999C300.3879999999999 97.28059999999999 299.0159999999999 98.00739999999999 297.4579999999999 98.4014C295.9009999999999 98.7971 293.9529999999999 98.9944 291.61799999999994 98.9944C287.86599999999993 98.9944 284.8209999999999 98.5989 282.48599999999993 97.81C281.5299999999999 97.48570000000001 280.9099999999999 96.9655 280.62799999999993 96.24770000000001C280.4149999999999 95.78070000000001 280.30799999999994 95.09890000000001 280.30799999999994 94.2001ZM287.689 92.2085C287.86600000000004 92.4955 288.237 92.693 288.80400000000003 92.8004C289.51200000000006 92.9804 290.46700000000004 93.06909999999999 291.67 93.06909999999999C294.22 93.06909999999999 295.892 92.5046 296.687 91.37389999999999C297.485 90.2418 297.88300000000004 88.02359999999999 297.88300000000004 84.72099999999999C297.88300000000004 81.63409999999999 297.59000000000003 79.514 297.00700000000006 78.36439999999999C296.4220000000001 77.21549999999999 295.1580000000001 76.64179999999999 293.21000000000004 76.64179999999999C290.91 76.64179999999999 289.22900000000004 76.98249999999999 288.16700000000003 77.66469999999998C287.84700000000004 77.84509999999999 287.636 78.05989999999998 287.52900000000005 78.31119999999999C287.45900000000006 78.52679999999998 287.42400000000004 78.88639999999998 287.42400000000004 79.38869999999999L287.42400000000004 90.80679999999998C287.42400000000004 91.52639999999998 287.51200000000006 91.99329999999998 287.689 92.20849999999999Z " fill="#fe2118" transform="matrix(1,0,0,1,-110,-58)"></path></svg>